<mxfile host="Electron" agent="Mozilla/5.0 (Windows NT 10.0; Win64; x64) AppleWebKit/537.36 (KHTML, like Gecko) draw.io/26.0.9 Chrome/128.0.6613.186 Electron/32.2.5 Safari/537.36" version="26.0.9">
  <diagram id="C5RBs43oDa-KdzZeNtuy" name="Page-1">
    <mxGraphModel dx="792" dy="1187" grid="1" gridSize="10" guides="1" tooltips="1" connect="1" arrows="1" fold="1" page="1" pageScale="1" pageWidth="3300" pageHeight="4681" math="0" shadow="0">
      <root>
        <mxCell id="WIyWlLk6GJQsqaUBKTNV-0" />
        <mxCell id="WIyWlLk6GJQsqaUBKTNV-1" parent="WIyWlLk6GJQsqaUBKTNV-0" />
        <mxCell id="ebPfhtc5WiSc0Pybruz--7" value="" style="edgeStyle=orthogonalEdgeStyle;rounded=0;orthogonalLoop=1;jettySize=auto;html=1;" parent="WIyWlLk6GJQsqaUBKTNV-1" source="ebPfhtc5WiSc0Pybruz--5" target="ebPfhtc5WiSc0Pybruz--6" edge="1">
          <mxGeometry relative="1" as="geometry" />
        </mxCell>
        <mxCell id="ebPfhtc5WiSc0Pybruz--5" value="Algus" style="ellipse;whiteSpace=wrap;html=1;" parent="WIyWlLk6GJQsqaUBKTNV-1" vertex="1">
          <mxGeometry x="535" y="110" width="120" height="80" as="geometry" />
        </mxCell>
        <mxCell id="ebPfhtc5WiSc0Pybruz--10" value="" style="edgeStyle=orthogonalEdgeStyle;rounded=0;orthogonalLoop=1;jettySize=auto;html=1;" parent="WIyWlLk6GJQsqaUBKTNV-1" source="ebPfhtc5WiSc0Pybruz--6" target="ebPfhtc5WiSc0Pybruz--8" edge="1">
          <mxGeometry relative="1" as="geometry" />
        </mxCell>
        <mxCell id="ebPfhtc5WiSc0Pybruz--6" value="Kuva kasutajale tekst küsimusega, kas su tuba on kolmnurga, ristküliku või ringi kujuline" style="shape=parallelogram;perimeter=parallelogramPerimeter;whiteSpace=wrap;html=1;fixedSize=1;" parent="WIyWlLk6GJQsqaUBKTNV-1" vertex="1">
          <mxGeometry x="510" y="250" width="170" height="60" as="geometry" />
        </mxCell>
        <mxCell id="ebPfhtc5WiSc0Pybruz--13" value="" style="edgeStyle=orthogonalEdgeStyle;rounded=0;orthogonalLoop=1;jettySize=auto;html=1;" parent="WIyWlLk6GJQsqaUBKTNV-1" source="ebPfhtc5WiSc0Pybruz--8" target="ebPfhtc5WiSc0Pybruz--9" edge="1">
          <mxGeometry relative="1" as="geometry" />
        </mxCell>
        <mxCell id="ebPfhtc5WiSc0Pybruz--8" value="Ootame, kuni kasutaja sisestab muutujasse &quot;kujund&quot;&amp;nbsp; &lt;b&gt;string&amp;nbsp;&lt;/b&gt;vastuse" style="rounded=0;whiteSpace=wrap;html=1;" parent="WIyWlLk6GJQsqaUBKTNV-1" vertex="1">
          <mxGeometry x="535" y="370" width="120" height="60" as="geometry" />
        </mxCell>
        <mxCell id="ebPfhtc5WiSc0Pybruz--9" value="Kas kasutaja on sisestanud midagi?" style="rhombus;whiteSpace=wrap;html=1;" parent="WIyWlLk6GJQsqaUBKTNV-1" vertex="1">
          <mxGeometry x="532.5" y="490" width="125" height="80" as="geometry" />
        </mxCell>
        <mxCell id="ebPfhtc5WiSc0Pybruz--11" style="edgeStyle=orthogonalEdgeStyle;rounded=0;orthogonalLoop=1;jettySize=auto;html=1;exitX=1;exitY=0.5;exitDx=0;exitDy=0;entryX=1;entryY=0.5;entryDx=0;entryDy=0;" parent="WIyWlLk6GJQsqaUBKTNV-1" source="ebPfhtc5WiSc0Pybruz--9" target="ebPfhtc5WiSc0Pybruz--8" edge="1">
          <mxGeometry relative="1" as="geometry">
            <Array as="points">
              <mxPoint x="710" y="530" />
              <mxPoint x="710" y="400" />
            </Array>
          </mxGeometry>
        </mxCell>
        <mxCell id="ebPfhtc5WiSc0Pybruz--12" value="EI" style="edgeLabel;html=1;align=center;verticalAlign=middle;resizable=0;points=[];" parent="ebPfhtc5WiSc0Pybruz--11" vertex="1" connectable="0">
          <mxGeometry x="0.1154" y="-4" relative="1" as="geometry">
            <mxPoint as="offset" />
          </mxGeometry>
        </mxCell>
        <mxCell id="vz92iOvpATj9zAgx5jtv-1" value="" style="endArrow=classic;html=1;rounded=0;exitX=0.5;exitY=1;exitDx=0;exitDy=0;" edge="1" parent="WIyWlLk6GJQsqaUBKTNV-1" source="ebPfhtc5WiSc0Pybruz--9">
          <mxGeometry width="50" height="50" relative="1" as="geometry">
            <mxPoint x="600" y="620" as="sourcePoint" />
            <mxPoint x="595" y="640" as="targetPoint" />
          </mxGeometry>
        </mxCell>
        <mxCell id="vz92iOvpATj9zAgx5jtv-6" value="" style="edgeStyle=orthogonalEdgeStyle;rounded=0;orthogonalLoop=1;jettySize=auto;html=1;" edge="1" parent="WIyWlLk6GJQsqaUBKTNV-1" source="vz92iOvpATj9zAgx5jtv-2" target="vz92iOvpATj9zAgx5jtv-5">
          <mxGeometry relative="1" as="geometry" />
        </mxCell>
        <mxCell id="vz92iOvpATj9zAgx5jtv-7" value="Ei" style="edgeLabel;html=1;align=center;verticalAlign=middle;resizable=0;points=[];" vertex="1" connectable="0" parent="vz92iOvpATj9zAgx5jtv-6">
          <mxGeometry x="-0.125" relative="1" as="geometry">
            <mxPoint as="offset" />
          </mxGeometry>
        </mxCell>
        <mxCell id="vz92iOvpATj9zAgx5jtv-9" value="" style="edgeStyle=orthogonalEdgeStyle;rounded=0;orthogonalLoop=1;jettySize=auto;html=1;" edge="1" parent="WIyWlLk6GJQsqaUBKTNV-1" source="vz92iOvpATj9zAgx5jtv-2" target="vz92iOvpATj9zAgx5jtv-8">
          <mxGeometry relative="1" as="geometry" />
        </mxCell>
        <mxCell id="vz92iOvpATj9zAgx5jtv-10" value="Jah" style="edgeLabel;html=1;align=center;verticalAlign=middle;resizable=0;points=[];" vertex="1" connectable="0" parent="vz92iOvpATj9zAgx5jtv-9">
          <mxGeometry x="-0.168" y="-2" relative="1" as="geometry">
            <mxPoint as="offset" />
          </mxGeometry>
        </mxCell>
        <mxCell id="vz92iOvpATj9zAgx5jtv-2" value="Kas sisestatud sõna on &quot;kolmnurk&quot;?" style="rhombus;whiteSpace=wrap;html=1;" vertex="1" parent="WIyWlLk6GJQsqaUBKTNV-1">
          <mxGeometry x="500" y="640" width="190" height="80" as="geometry" />
        </mxCell>
        <mxCell id="vz92iOvpATj9zAgx5jtv-77" style="edgeStyle=orthogonalEdgeStyle;rounded=0;orthogonalLoop=1;jettySize=auto;html=1;entryX=0;entryY=0.5;entryDx=0;entryDy=0;" edge="1" parent="WIyWlLk6GJQsqaUBKTNV-1" source="vz92iOvpATj9zAgx5jtv-5" target="vz92iOvpATj9zAgx5jtv-50">
          <mxGeometry relative="1" as="geometry" />
        </mxCell>
        <mxCell id="vz92iOvpATj9zAgx5jtv-78" value="Jah" style="edgeLabel;html=1;align=center;verticalAlign=middle;resizable=0;points=[];" vertex="1" connectable="0" parent="vz92iOvpATj9zAgx5jtv-77">
          <mxGeometry x="0.0743" y="-2" relative="1" as="geometry">
            <mxPoint as="offset" />
          </mxGeometry>
        </mxCell>
        <mxCell id="vz92iOvpATj9zAgx5jtv-82" value="" style="edgeStyle=orthogonalEdgeStyle;rounded=0;orthogonalLoop=1;jettySize=auto;html=1;" edge="1" parent="WIyWlLk6GJQsqaUBKTNV-1" source="vz92iOvpATj9zAgx5jtv-5" target="vz92iOvpATj9zAgx5jtv-81">
          <mxGeometry relative="1" as="geometry" />
        </mxCell>
        <mxCell id="vz92iOvpATj9zAgx5jtv-83" value="Ei" style="edgeLabel;html=1;align=center;verticalAlign=middle;resizable=0;points=[];" vertex="1" connectable="0" parent="vz92iOvpATj9zAgx5jtv-82">
          <mxGeometry x="-0.15" relative="1" as="geometry">
            <mxPoint as="offset" />
          </mxGeometry>
        </mxCell>
        <mxCell id="vz92iOvpATj9zAgx5jtv-5" value="Kas sisestatud sõna on &quot;ristkülik&quot;?" style="rhombus;whiteSpace=wrap;html=1;" vertex="1" parent="WIyWlLk6GJQsqaUBKTNV-1">
          <mxGeometry x="500" y="952" width="190" height="80" as="geometry" />
        </mxCell>
        <mxCell id="vz92iOvpATj9zAgx5jtv-12" value="" style="edgeStyle=orthogonalEdgeStyle;rounded=0;orthogonalLoop=1;jettySize=auto;html=1;" edge="1" parent="WIyWlLk6GJQsqaUBKTNV-1" source="vz92iOvpATj9zAgx5jtv-8" target="vz92iOvpATj9zAgx5jtv-11">
          <mxGeometry relative="1" as="geometry" />
        </mxCell>
        <mxCell id="vz92iOvpATj9zAgx5jtv-8" value="Kuva kasutajale tekst &quot;Palun sisesta oma toa esimene külg&quot;" style="shape=parallelogram;perimeter=parallelogramPerimeter;whiteSpace=wrap;html=1;fixedSize=1;" vertex="1" parent="WIyWlLk6GJQsqaUBKTNV-1">
          <mxGeometry x="805" y="650" width="135" height="60" as="geometry" />
        </mxCell>
        <mxCell id="vz92iOvpATj9zAgx5jtv-14" value="" style="edgeStyle=orthogonalEdgeStyle;rounded=0;orthogonalLoop=1;jettySize=auto;html=1;" edge="1" parent="WIyWlLk6GJQsqaUBKTNV-1" source="vz92iOvpATj9zAgx5jtv-11" target="vz92iOvpATj9zAgx5jtv-13">
          <mxGeometry relative="1" as="geometry" />
        </mxCell>
        <mxCell id="vz92iOvpATj9zAgx5jtv-11" value="Oota, kuni kasutaja sisestab muutujasse &quot;a_külg&quot; doubletüüpi andmed" style="whiteSpace=wrap;html=1;" vertex="1" parent="WIyWlLk6GJQsqaUBKTNV-1">
          <mxGeometry x="1027.5" y="650" width="120" height="60" as="geometry" />
        </mxCell>
        <mxCell id="vz92iOvpATj9zAgx5jtv-16" style="edgeStyle=orthogonalEdgeStyle;rounded=0;orthogonalLoop=1;jettySize=auto;html=1;exitX=0.5;exitY=0;exitDx=0;exitDy=0;" edge="1" parent="WIyWlLk6GJQsqaUBKTNV-1" source="vz92iOvpATj9zAgx5jtv-13">
          <mxGeometry relative="1" as="geometry">
            <mxPoint x="990" y="680" as="targetPoint" />
            <mxPoint x="1287.5" y="610" as="sourcePoint" />
            <Array as="points">
              <mxPoint x="1309" y="610" />
              <mxPoint x="1144" y="610" />
              <mxPoint x="1144" y="611" />
            </Array>
          </mxGeometry>
        </mxCell>
        <mxCell id="vz92iOvpATj9zAgx5jtv-17" value="Ei" style="edgeLabel;html=1;align=center;verticalAlign=middle;resizable=0;points=[];" vertex="1" connectable="0" parent="vz92iOvpATj9zAgx5jtv-16">
          <mxGeometry x="-0.0267" y="1" relative="1" as="geometry">
            <mxPoint as="offset" />
          </mxGeometry>
        </mxCell>
        <mxCell id="vz92iOvpATj9zAgx5jtv-21" value="" style="edgeStyle=orthogonalEdgeStyle;rounded=0;orthogonalLoop=1;jettySize=auto;html=1;" edge="1" parent="WIyWlLk6GJQsqaUBKTNV-1" source="vz92iOvpATj9zAgx5jtv-13">
          <mxGeometry relative="1" as="geometry">
            <mxPoint x="1471.25" y="680" as="targetPoint" />
          </mxGeometry>
        </mxCell>
        <mxCell id="vz92iOvpATj9zAgx5jtv-22" value="Jah" style="edgeLabel;html=1;align=center;verticalAlign=middle;resizable=0;points=[];" vertex="1" connectable="0" parent="vz92iOvpATj9zAgx5jtv-21">
          <mxGeometry x="-0.1704" y="2" relative="1" as="geometry">
            <mxPoint as="offset" />
          </mxGeometry>
        </mxCell>
        <mxCell id="vz92iOvpATj9zAgx5jtv-13" value="Kas kasutaja on sisestanud A_Külg&lt;div&gt;Andmed&lt;/div&gt;" style="rhombus;whiteSpace=wrap;html=1;" vertex="1" parent="WIyWlLk6GJQsqaUBKTNV-1">
          <mxGeometry x="1247.5" y="640" width="122.5" height="80" as="geometry" />
        </mxCell>
        <mxCell id="vz92iOvpATj9zAgx5jtv-25" value="" style="edgeStyle=orthogonalEdgeStyle;rounded=0;orthogonalLoop=1;jettySize=auto;html=1;" edge="1" parent="WIyWlLk6GJQsqaUBKTNV-1" source="vz92iOvpATj9zAgx5jtv-23" target="vz92iOvpATj9zAgx5jtv-24">
          <mxGeometry relative="1" as="geometry" />
        </mxCell>
        <mxCell id="vz92iOvpATj9zAgx5jtv-23" value="Kuva kasutajale tekst&lt;div&gt;&quot;Palun sisesta oma toa teine külg&quot;&lt;/div&gt;" style="shape=parallelogram;perimeter=parallelogramPerimeter;whiteSpace=wrap;html=1;fixedSize=1;" vertex="1" parent="WIyWlLk6GJQsqaUBKTNV-1">
          <mxGeometry x="1460" y="650" width="120" height="60" as="geometry" />
        </mxCell>
        <mxCell id="vz92iOvpATj9zAgx5jtv-27" value="" style="edgeStyle=orthogonalEdgeStyle;rounded=0;orthogonalLoop=1;jettySize=auto;html=1;" edge="1" parent="WIyWlLk6GJQsqaUBKTNV-1" source="vz92iOvpATj9zAgx5jtv-24" target="vz92iOvpATj9zAgx5jtv-26">
          <mxGeometry relative="1" as="geometry" />
        </mxCell>
        <mxCell id="vz92iOvpATj9zAgx5jtv-24" value="Oota, kuni kasutaja sisestab muutujasse &quot;b_külg&quot; doubletüüpi andmed" style="whiteSpace=wrap;html=1;" vertex="1" parent="WIyWlLk6GJQsqaUBKTNV-1">
          <mxGeometry x="1660" y="650" width="120" height="60" as="geometry" />
        </mxCell>
        <mxCell id="vz92iOvpATj9zAgx5jtv-28" style="edgeStyle=orthogonalEdgeStyle;rounded=0;orthogonalLoop=1;jettySize=auto;html=1;exitX=0.5;exitY=0;exitDx=0;exitDy=0;" edge="1" parent="WIyWlLk6GJQsqaUBKTNV-1" source="vz92iOvpATj9zAgx5jtv-26">
          <mxGeometry relative="1" as="geometry">
            <mxPoint x="1610" y="680" as="targetPoint" />
            <mxPoint x="1940" y="590" as="sourcePoint" />
            <Array as="points">
              <mxPoint x="1940" y="590" />
              <mxPoint x="1850" y="590" />
              <mxPoint x="1850" y="591" />
            </Array>
          </mxGeometry>
        </mxCell>
        <mxCell id="vz92iOvpATj9zAgx5jtv-29" value="Ei" style="edgeLabel;html=1;align=center;verticalAlign=middle;resizable=0;points=[];" vertex="1" connectable="0" parent="vz92iOvpATj9zAgx5jtv-28">
          <mxGeometry x="-0.1234" y="2" relative="1" as="geometry">
            <mxPoint as="offset" />
          </mxGeometry>
        </mxCell>
        <mxCell id="vz92iOvpATj9zAgx5jtv-31" value="" style="edgeStyle=orthogonalEdgeStyle;rounded=0;orthogonalLoop=1;jettySize=auto;html=1;" edge="1" parent="WIyWlLk6GJQsqaUBKTNV-1" source="vz92iOvpATj9zAgx5jtv-26" target="vz92iOvpATj9zAgx5jtv-30">
          <mxGeometry relative="1" as="geometry" />
        </mxCell>
        <mxCell id="vz92iOvpATj9zAgx5jtv-26" value="Kas kasutaja on sisestanud b_külg andmed?" style="rhombus;whiteSpace=wrap;html=1;" vertex="1" parent="WIyWlLk6GJQsqaUBKTNV-1">
          <mxGeometry x="1880" y="640" width="120" height="80" as="geometry" />
        </mxCell>
        <mxCell id="vz92iOvpATj9zAgx5jtv-33" value="" style="edgeStyle=orthogonalEdgeStyle;rounded=0;orthogonalLoop=1;jettySize=auto;html=1;" edge="1" parent="WIyWlLk6GJQsqaUBKTNV-1" source="vz92iOvpATj9zAgx5jtv-30" target="vz92iOvpATj9zAgx5jtv-32">
          <mxGeometry relative="1" as="geometry" />
        </mxCell>
        <mxCell id="vz92iOvpATj9zAgx5jtv-30" value="Kuva kasutajale tekst &quot;Palun sisesta oma toa kolmas külg&quot;&lt;div&gt;&lt;br&gt;&lt;/div&gt;" style="shape=parallelogram;perimeter=parallelogramPerimeter;whiteSpace=wrap;html=1;fixedSize=1;" vertex="1" parent="WIyWlLk6GJQsqaUBKTNV-1">
          <mxGeometry x="2080" y="650" width="170" height="60" as="geometry" />
        </mxCell>
        <mxCell id="vz92iOvpATj9zAgx5jtv-35" value="" style="edgeStyle=orthogonalEdgeStyle;rounded=0;orthogonalLoop=1;jettySize=auto;html=1;" edge="1" parent="WIyWlLk6GJQsqaUBKTNV-1" source="vz92iOvpATj9zAgx5jtv-32" target="vz92iOvpATj9zAgx5jtv-34">
          <mxGeometry relative="1" as="geometry" />
        </mxCell>
        <mxCell id="vz92iOvpATj9zAgx5jtv-32" value="Oota, kuni kasutaja sisestab muutujasse &quot;c_külg&quot; doubletüüpi andmed" style="whiteSpace=wrap;html=1;" vertex="1" parent="WIyWlLk6GJQsqaUBKTNV-1">
          <mxGeometry x="2355" y="650" width="120" height="60" as="geometry" />
        </mxCell>
        <mxCell id="vz92iOvpATj9zAgx5jtv-47" value="" style="edgeStyle=orthogonalEdgeStyle;rounded=0;orthogonalLoop=1;jettySize=auto;html=1;" edge="1" parent="WIyWlLk6GJQsqaUBKTNV-1" source="vz92iOvpATj9zAgx5jtv-34" target="vz92iOvpATj9zAgx5jtv-46">
          <mxGeometry relative="1" as="geometry" />
        </mxCell>
        <mxCell id="vz92iOvpATj9zAgx5jtv-34" value="Kas kasutaja on sisestanud c_külg andmed?" style="rhombus;whiteSpace=wrap;html=1;" vertex="1" parent="WIyWlLk6GJQsqaUBKTNV-1">
          <mxGeometry x="2575" y="640" width="115" height="80" as="geometry" />
        </mxCell>
        <mxCell id="vz92iOvpATj9zAgx5jtv-42" value="" style="endArrow=none;html=1;rounded=0;" edge="1" parent="WIyWlLk6GJQsqaUBKTNV-1">
          <mxGeometry width="50" height="50" relative="1" as="geometry">
            <mxPoint x="2280" y="680" as="sourcePoint" />
            <mxPoint x="2280" y="480" as="targetPoint" />
          </mxGeometry>
        </mxCell>
        <mxCell id="vz92iOvpATj9zAgx5jtv-43" value="" style="endArrow=none;html=1;rounded=0;" edge="1" parent="WIyWlLk6GJQsqaUBKTNV-1">
          <mxGeometry width="50" height="50" relative="1" as="geometry">
            <mxPoint x="2280" y="480" as="sourcePoint" />
            <mxPoint x="2640" y="480" as="targetPoint" />
          </mxGeometry>
        </mxCell>
        <mxCell id="vz92iOvpATj9zAgx5jtv-45" value="Ei" style="edgeLabel;html=1;align=center;verticalAlign=middle;resizable=0;points=[];" vertex="1" connectable="0" parent="vz92iOvpATj9zAgx5jtv-43">
          <mxGeometry x="-0.0833" y="-4" relative="1" as="geometry">
            <mxPoint as="offset" />
          </mxGeometry>
        </mxCell>
        <mxCell id="vz92iOvpATj9zAgx5jtv-44" value="" style="endArrow=none;html=1;rounded=0;" edge="1" parent="WIyWlLk6GJQsqaUBKTNV-1">
          <mxGeometry width="50" height="50" relative="1" as="geometry">
            <mxPoint x="2630" y="640" as="sourcePoint" />
            <mxPoint x="2630" y="480" as="targetPoint" />
          </mxGeometry>
        </mxCell>
        <mxCell id="vz92iOvpATj9zAgx5jtv-46" value="Teostame arvutustehte ja arvutame kolmnurga pindala, kasutades valemit &quot;(a_külg + b_külg + c_külg) / 2&quot;" style="shape=parallelogram;perimeter=parallelogramPerimeter;whiteSpace=wrap;html=1;fixedSize=1;" vertex="1" parent="WIyWlLk6GJQsqaUBKTNV-1">
          <mxGeometry x="2767.5" y="650" width="252.5" height="60" as="geometry" />
        </mxCell>
        <mxCell id="vz92iOvpATj9zAgx5jtv-49" value="" style="edgeStyle=orthogonalEdgeStyle;rounded=0;orthogonalLoop=1;jettySize=auto;html=1;" edge="1" parent="WIyWlLk6GJQsqaUBKTNV-1" source="vz92iOvpATj9zAgx5jtv-50" target="vz92iOvpATj9zAgx5jtv-52">
          <mxGeometry relative="1" as="geometry" />
        </mxCell>
        <mxCell id="vz92iOvpATj9zAgx5jtv-50" value="Kuva kasutajale tekst &quot;Palun sisesta oma toa esimene külg&quot;" style="shape=parallelogram;perimeter=parallelogramPerimeter;whiteSpace=wrap;html=1;fixedSize=1;" vertex="1" parent="WIyWlLk6GJQsqaUBKTNV-1">
          <mxGeometry x="853" y="960" width="135" height="60" as="geometry" />
        </mxCell>
        <mxCell id="vz92iOvpATj9zAgx5jtv-51" value="" style="edgeStyle=orthogonalEdgeStyle;rounded=0;orthogonalLoop=1;jettySize=auto;html=1;" edge="1" parent="WIyWlLk6GJQsqaUBKTNV-1" source="vz92iOvpATj9zAgx5jtv-52" target="vz92iOvpATj9zAgx5jtv-57">
          <mxGeometry relative="1" as="geometry" />
        </mxCell>
        <mxCell id="vz92iOvpATj9zAgx5jtv-52" value="Oota, kuni kasutaja sisestab muutujasse &quot;a_külg&quot; doubletüüpi andmed" style="whiteSpace=wrap;html=1;" vertex="1" parent="WIyWlLk6GJQsqaUBKTNV-1">
          <mxGeometry x="1075.5" y="960" width="120" height="60" as="geometry" />
        </mxCell>
        <mxCell id="vz92iOvpATj9zAgx5jtv-53" style="edgeStyle=orthogonalEdgeStyle;rounded=0;orthogonalLoop=1;jettySize=auto;html=1;exitX=0.5;exitY=0;exitDx=0;exitDy=0;" edge="1" parent="WIyWlLk6GJQsqaUBKTNV-1" source="vz92iOvpATj9zAgx5jtv-57">
          <mxGeometry relative="1" as="geometry">
            <mxPoint x="1038" y="990" as="targetPoint" />
            <mxPoint x="1335.5" y="920" as="sourcePoint" />
            <Array as="points">
              <mxPoint x="1357" y="920" />
              <mxPoint x="1192" y="920" />
              <mxPoint x="1192" y="921" />
            </Array>
          </mxGeometry>
        </mxCell>
        <mxCell id="vz92iOvpATj9zAgx5jtv-54" value="Ei" style="edgeLabel;html=1;align=center;verticalAlign=middle;resizable=0;points=[];" vertex="1" connectable="0" parent="vz92iOvpATj9zAgx5jtv-53">
          <mxGeometry x="-0.0267" y="1" relative="1" as="geometry">
            <mxPoint as="offset" />
          </mxGeometry>
        </mxCell>
        <mxCell id="vz92iOvpATj9zAgx5jtv-55" value="" style="edgeStyle=orthogonalEdgeStyle;rounded=0;orthogonalLoop=1;jettySize=auto;html=1;" edge="1" parent="WIyWlLk6GJQsqaUBKTNV-1" source="vz92iOvpATj9zAgx5jtv-57">
          <mxGeometry relative="1" as="geometry">
            <mxPoint x="1519.25" y="990" as="targetPoint" />
          </mxGeometry>
        </mxCell>
        <mxCell id="vz92iOvpATj9zAgx5jtv-56" value="Jah" style="edgeLabel;html=1;align=center;verticalAlign=middle;resizable=0;points=[];" vertex="1" connectable="0" parent="vz92iOvpATj9zAgx5jtv-55">
          <mxGeometry x="-0.1704" y="2" relative="1" as="geometry">
            <mxPoint as="offset" />
          </mxGeometry>
        </mxCell>
        <mxCell id="vz92iOvpATj9zAgx5jtv-57" value="Kas kasutaja on sisestanud A_Külg&lt;div&gt;Andmed&lt;/div&gt;" style="rhombus;whiteSpace=wrap;html=1;" vertex="1" parent="WIyWlLk6GJQsqaUBKTNV-1">
          <mxGeometry x="1295.5" y="950" width="122.5" height="80" as="geometry" />
        </mxCell>
        <mxCell id="vz92iOvpATj9zAgx5jtv-58" value="" style="edgeStyle=orthogonalEdgeStyle;rounded=0;orthogonalLoop=1;jettySize=auto;html=1;" edge="1" parent="WIyWlLk6GJQsqaUBKTNV-1" source="vz92iOvpATj9zAgx5jtv-59" target="vz92iOvpATj9zAgx5jtv-61">
          <mxGeometry relative="1" as="geometry" />
        </mxCell>
        <mxCell id="vz92iOvpATj9zAgx5jtv-59" value="Kuva kasutajale tekst&lt;div&gt;&quot;Palun sisesta oma toa teine külg&quot;&lt;/div&gt;" style="shape=parallelogram;perimeter=parallelogramPerimeter;whiteSpace=wrap;html=1;fixedSize=1;" vertex="1" parent="WIyWlLk6GJQsqaUBKTNV-1">
          <mxGeometry x="1508" y="960" width="120" height="60" as="geometry" />
        </mxCell>
        <mxCell id="vz92iOvpATj9zAgx5jtv-60" value="" style="edgeStyle=orthogonalEdgeStyle;rounded=0;orthogonalLoop=1;jettySize=auto;html=1;" edge="1" parent="WIyWlLk6GJQsqaUBKTNV-1" source="vz92iOvpATj9zAgx5jtv-61" target="vz92iOvpATj9zAgx5jtv-65">
          <mxGeometry relative="1" as="geometry" />
        </mxCell>
        <mxCell id="vz92iOvpATj9zAgx5jtv-61" value="Oota, kuni kasutaja sisestab muutujasse &quot;b_külg&quot; doubletüüpi andmed" style="whiteSpace=wrap;html=1;" vertex="1" parent="WIyWlLk6GJQsqaUBKTNV-1">
          <mxGeometry x="1708" y="960" width="120" height="60" as="geometry" />
        </mxCell>
        <mxCell id="vz92iOvpATj9zAgx5jtv-62" style="edgeStyle=orthogonalEdgeStyle;rounded=0;orthogonalLoop=1;jettySize=auto;html=1;exitX=0.5;exitY=0;exitDx=0;exitDy=0;" edge="1" parent="WIyWlLk6GJQsqaUBKTNV-1" source="vz92iOvpATj9zAgx5jtv-65">
          <mxGeometry relative="1" as="geometry">
            <mxPoint x="1658" y="990" as="targetPoint" />
            <mxPoint x="1988" y="900" as="sourcePoint" />
            <Array as="points">
              <mxPoint x="1988" y="900" />
              <mxPoint x="1898" y="900" />
              <mxPoint x="1898" y="901" />
            </Array>
          </mxGeometry>
        </mxCell>
        <mxCell id="vz92iOvpATj9zAgx5jtv-63" value="Ei" style="edgeLabel;html=1;align=center;verticalAlign=middle;resizable=0;points=[];" vertex="1" connectable="0" parent="vz92iOvpATj9zAgx5jtv-62">
          <mxGeometry x="-0.1234" y="2" relative="1" as="geometry">
            <mxPoint as="offset" />
          </mxGeometry>
        </mxCell>
        <mxCell id="vz92iOvpATj9zAgx5jtv-80" value="" style="edgeStyle=orthogonalEdgeStyle;rounded=0;orthogonalLoop=1;jettySize=auto;html=1;" edge="1" parent="WIyWlLk6GJQsqaUBKTNV-1" source="vz92iOvpATj9zAgx5jtv-65" target="vz92iOvpATj9zAgx5jtv-79">
          <mxGeometry relative="1" as="geometry" />
        </mxCell>
        <mxCell id="vz92iOvpATj9zAgx5jtv-65" value="Kas kasutaja on sisestanud b_külg andmed?" style="rhombus;whiteSpace=wrap;html=1;" vertex="1" parent="WIyWlLk6GJQsqaUBKTNV-1">
          <mxGeometry x="1928" y="950" width="120" height="80" as="geometry" />
        </mxCell>
        <mxCell id="vz92iOvpATj9zAgx5jtv-114" style="edgeStyle=orthogonalEdgeStyle;rounded=0;orthogonalLoop=1;jettySize=auto;html=1;" edge="1" parent="WIyWlLk6GJQsqaUBKTNV-1" source="vz92iOvpATj9zAgx5jtv-79">
          <mxGeometry relative="1" as="geometry">
            <mxPoint x="2890" y="990" as="targetPoint" />
          </mxGeometry>
        </mxCell>
        <mxCell id="vz92iOvpATj9zAgx5jtv-79" value="Teostame arvutustehte ja arvutame ristküliku pindala, kasutades valemit &quot;a_külg * b_külg&quot;" style="shape=parallelogram;perimeter=parallelogramPerimeter;whiteSpace=wrap;html=1;fixedSize=1;" vertex="1" parent="WIyWlLk6GJQsqaUBKTNV-1">
          <mxGeometry x="2128" y="960" width="352" height="60" as="geometry" />
        </mxCell>
        <mxCell id="vz92iOvpATj9zAgx5jtv-104" style="edgeStyle=orthogonalEdgeStyle;rounded=0;orthogonalLoop=1;jettySize=auto;html=1;" edge="1" parent="WIyWlLk6GJQsqaUBKTNV-1" source="vz92iOvpATj9zAgx5jtv-81" target="vz92iOvpATj9zAgx5jtv-86">
          <mxGeometry relative="1" as="geometry" />
        </mxCell>
        <mxCell id="vz92iOvpATj9zAgx5jtv-105" value="Jah" style="edgeLabel;html=1;align=center;verticalAlign=middle;resizable=0;points=[];" vertex="1" connectable="0" parent="vz92iOvpATj9zAgx5jtv-104">
          <mxGeometry x="-0.022" relative="1" as="geometry">
            <mxPoint as="offset" />
          </mxGeometry>
        </mxCell>
        <mxCell id="vz92iOvpATj9zAgx5jtv-81" value="Kas sisestatud sõna on ring?" style="rhombus;whiteSpace=wrap;html=1;" vertex="1" parent="WIyWlLk6GJQsqaUBKTNV-1">
          <mxGeometry x="512.5" y="1112" width="165" height="80" as="geometry" />
        </mxCell>
        <mxCell id="vz92iOvpATj9zAgx5jtv-85" value="" style="edgeStyle=orthogonalEdgeStyle;rounded=0;orthogonalLoop=1;jettySize=auto;html=1;" edge="1" parent="WIyWlLk6GJQsqaUBKTNV-1" source="vz92iOvpATj9zAgx5jtv-86" target="vz92iOvpATj9zAgx5jtv-88">
          <mxGeometry relative="1" as="geometry" />
        </mxCell>
        <mxCell id="vz92iOvpATj9zAgx5jtv-86" value="Kuva kasutajale tekst &quot;Palun sisesta oma toa läbimõõt&quot;" style="shape=parallelogram;perimeter=parallelogramPerimeter;whiteSpace=wrap;html=1;fixedSize=1;" vertex="1" parent="WIyWlLk6GJQsqaUBKTNV-1">
          <mxGeometry x="781" y="1122" width="135" height="60" as="geometry" />
        </mxCell>
        <mxCell id="vz92iOvpATj9zAgx5jtv-87" value="" style="edgeStyle=orthogonalEdgeStyle;rounded=0;orthogonalLoop=1;jettySize=auto;html=1;" edge="1" parent="WIyWlLk6GJQsqaUBKTNV-1" source="vz92iOvpATj9zAgx5jtv-88" target="vz92iOvpATj9zAgx5jtv-93">
          <mxGeometry relative="1" as="geometry" />
        </mxCell>
        <mxCell id="vz92iOvpATj9zAgx5jtv-88" value="Oota, kuni kasutaja sisestab muutujasse &quot;läbimõõt&quot; doubletüüpi andmed" style="whiteSpace=wrap;html=1;" vertex="1" parent="WIyWlLk6GJQsqaUBKTNV-1">
          <mxGeometry x="1003.5" y="1122" width="120" height="60" as="geometry" />
        </mxCell>
        <mxCell id="vz92iOvpATj9zAgx5jtv-89" style="edgeStyle=orthogonalEdgeStyle;rounded=0;orthogonalLoop=1;jettySize=auto;html=1;exitX=0.5;exitY=0;exitDx=0;exitDy=0;" edge="1" parent="WIyWlLk6GJQsqaUBKTNV-1" source="vz92iOvpATj9zAgx5jtv-93">
          <mxGeometry relative="1" as="geometry">
            <mxPoint x="966" y="1152" as="targetPoint" />
            <mxPoint x="1263.5" y="1082" as="sourcePoint" />
            <Array as="points">
              <mxPoint x="1285" y="1082" />
              <mxPoint x="1120" y="1082" />
              <mxPoint x="1120" y="1083" />
            </Array>
          </mxGeometry>
        </mxCell>
        <mxCell id="vz92iOvpATj9zAgx5jtv-90" value="Ei" style="edgeLabel;html=1;align=center;verticalAlign=middle;resizable=0;points=[];" vertex="1" connectable="0" parent="vz92iOvpATj9zAgx5jtv-89">
          <mxGeometry x="-0.0267" y="1" relative="1" as="geometry">
            <mxPoint as="offset" />
          </mxGeometry>
        </mxCell>
        <mxCell id="vz92iOvpATj9zAgx5jtv-107" value="" style="edgeStyle=orthogonalEdgeStyle;rounded=0;orthogonalLoop=1;jettySize=auto;html=1;" edge="1" parent="WIyWlLk6GJQsqaUBKTNV-1" source="vz92iOvpATj9zAgx5jtv-93" target="vz92iOvpATj9zAgx5jtv-106">
          <mxGeometry relative="1" as="geometry" />
        </mxCell>
        <mxCell id="vz92iOvpATj9zAgx5jtv-93" value="Kas kasutaja on sisestanud läbimõõt&lt;div&gt;andmed&lt;/div&gt;" style="rhombus;whiteSpace=wrap;html=1;" vertex="1" parent="WIyWlLk6GJQsqaUBKTNV-1">
          <mxGeometry x="1223.5" y="1112" width="122.5" height="80" as="geometry" />
        </mxCell>
        <mxCell id="vz92iOvpATj9zAgx5jtv-115" style="edgeStyle=orthogonalEdgeStyle;rounded=0;orthogonalLoop=1;jettySize=auto;html=1;" edge="1" parent="WIyWlLk6GJQsqaUBKTNV-1" source="vz92iOvpATj9zAgx5jtv-106">
          <mxGeometry relative="1" as="geometry">
            <mxPoint x="2892" y="1152" as="targetPoint" />
          </mxGeometry>
        </mxCell>
        <mxCell id="vz92iOvpATj9zAgx5jtv-106" value="Teostame arvutustehte ja arvutame ringi pindala kasutades valemit: &quot;Math.Pi * Math.Pow(läbimõõt/2)" style="shape=parallelogram;perimeter=parallelogramPerimeter;whiteSpace=wrap;html=1;fixedSize=1;" vertex="1" parent="WIyWlLk6GJQsqaUBKTNV-1">
          <mxGeometry x="1427.25" y="1122" width="382.75" height="60" as="geometry" />
        </mxCell>
        <mxCell id="vz92iOvpATj9zAgx5jtv-120" value="" style="edgeStyle=orthogonalEdgeStyle;rounded=0;orthogonalLoop=1;jettySize=auto;html=1;" edge="1" parent="WIyWlLk6GJQsqaUBKTNV-1" source="vz92iOvpATj9zAgx5jtv-108" target="vz92iOvpATj9zAgx5jtv-119">
          <mxGeometry relative="1" as="geometry" />
        </mxCell>
        <mxCell id="vz92iOvpATj9zAgx5jtv-108" value="Kuvame kasutajale tulemuse lausega &quot;Sinu toa pindala on&amp;nbsp;&lt;div&gt;{tulemus}&quot;&lt;/div&gt;" style="shape=parallelogram;perimeter=parallelogramPerimeter;whiteSpace=wrap;html=1;fixedSize=1;" vertex="1" parent="WIyWlLk6GJQsqaUBKTNV-1">
          <mxGeometry x="533" y="1330" width="167" height="60" as="geometry" />
        </mxCell>
        <mxCell id="vz92iOvpATj9zAgx5jtv-117" value="" style="endArrow=none;html=1;rounded=0;exitX=0.5;exitY=1;exitDx=0;exitDy=0;" edge="1" parent="WIyWlLk6GJQsqaUBKTNV-1" source="vz92iOvpATj9zAgx5jtv-46">
          <mxGeometry width="50" height="50" relative="1" as="geometry">
            <mxPoint x="2890" y="910" as="sourcePoint" />
            <mxPoint x="2900" y="1390" as="targetPoint" />
          </mxGeometry>
        </mxCell>
        <mxCell id="vz92iOvpATj9zAgx5jtv-118" value="" style="endArrow=classic;html=1;rounded=0;entryX=1;entryY=1;entryDx=0;entryDy=0;" edge="1" parent="WIyWlLk6GJQsqaUBKTNV-1" target="vz92iOvpATj9zAgx5jtv-108">
          <mxGeometry width="50" height="50" relative="1" as="geometry">
            <mxPoint x="2900" y="1390" as="sourcePoint" />
            <mxPoint x="2770" y="1350" as="targetPoint" />
          </mxGeometry>
        </mxCell>
        <mxCell id="vz92iOvpATj9zAgx5jtv-119" value="" style="ellipse;whiteSpace=wrap;html=1;" vertex="1" parent="WIyWlLk6GJQsqaUBKTNV-1">
          <mxGeometry x="576.5" y="1460" width="80" height="80" as="geometry" />
        </mxCell>
      </root>
    </mxGraphModel>
  </diagram>
</mxfile>
